:SAMPLES-PER-SECOND 30
:FULLY-SPECIFIED
:DEGREES
984
root  42.1086 38.1684 22.3968 176.11 51.8633 -176.829
RightUpLeg  -17.7934 -19.9131 -4.79352
RightLeg  24.325 4.20614 1.84445
RightFoot  2.85875 -0.376172 3.19138
RightToes  0.00048216 0.542163 -0.142577
Spine  10.6433 -1.3472 9.7235
Spine1  5.34681 0.664479 -3.18422
HEad  -14.5033 -16.3349 -1.71382
LeftShoulder1  7.88521 -11.9403 -44.4652
LeftArm  -13.0612 12.6004 -29.1911
LeftForeArm  38.7837 -39.1095 -6.68823
LeftHand  -0.25398 0.0180481 5.50724
RightShoulder  5.34209 8.9813 36.7858
RightArm  -6.58946 -15.25 35.6544
RightForeArm  19.077 8.36622 6.5499
RightHand  -0.658633 0.753786 -12.5249
LeftUpLeg  2.27297 -2.41714 6.00655
LeftLeg  50.8922 8.95417 11.9989
LeftFoot  -1.19381 -0.020491 0.567732
LeftToes  1.06247e-005 4.65855e-005 -8.18501e-006
985
root  43.3249 38.4252 22.2389 177.227 49.5876 -176.167
RightUpLeg  -16.0374 -21.7901 -4.16834
RightLeg  24.3178 3.85053 1.69451
RightFoot  1.23782 -0.32018 2.97744
RightToes  0.00048216 0.542163 -0.142577
Spine  10.9067 -1.4051 10.4063
Spine1  4.46678 0.605282 -2.51168
HEad  -14.0664 -17.7779 -0.811193
LeftShoulder1  7.90521 -11.9308 -44.6117
LeftArm  -10.4023 12.7862 -30.2179
LeftForeArm  34.7136 -31.5102 -4.95085
LeftHand  -0.25398 0.0180481 5.50724
RightShoulder  5.28099 8.91961 36.5143
RightArm  -3.01045 -14.4501 34.9547
RightForeArm  15.9049 11.1675 7.00529
RightHand  -0.837567 1.80457 -13.6653
LeftUpLeg  -3.75237 -1.29307 6.53552
LeftLeg  56.6818 8.07298 13.4293
LeftFoot  1.45463 -0.364597 3.25899
LeftToes  1.06247e-005 4.65855e-005 -8.18501e-006
986
root  44.4985 38.815 22.0323 177.005 47.9539 -176.78
RightUpLeg  -13.2901 -23.0538 -4.7622
RightLeg  23.0018 3.66735 2.03116
RightFoot  -0.29254 -0.266445 2.7374
RightToes  0.00048216 0.542163 -0.142577
Spine  11.226 -1.09311 10.4865
Spine1  4.0054 0.969008 -2.64747
HEad  -13.6293 -19.1425 -0.537289
LeftShoulder1  7.94321 -11.9659 -44.7298
LeftArm  -6.9827 13.433 -30.8296
LeftForeArm  31.9215 -25.2946 -3.75744
LeftHand  -0.25398 0.0180481 5.50724
RightShoulder  5.22987 8.87868 36.2487
RightArm  1.04076 -12.9448 34.2871
RightForeArm  12.5431 13.6426 6.92366
RightHand  -1.0653 2.94964 -15.035
LeftUpLeg  -8.20697 0.766544 5.58947
LeftLeg  58.3627 6.50864 11.7875
LeftFoot  0.428933 -0.249232 2.36484
LeftToes  1.06247e-005 4.65855e-005 -8.18501e-006
987
root  45.6273 39.1658 21.7845 176.91 46.7379 -177.48
RightUpLeg  -10.4231 -22.2457 -5.84987
RightLeg  21.2266 1.5537 2.67485
RightFoot  -2.02316 -0.261327 3.04277
RightToes  0.00048216 0.542163 -0.142577
Spine  10.9725 -0.492764 10.8258
Spine1  4.05414 1.7077 -3.33734
HEad  -13.4005 -21.0365 -0.116005
LeftShoulder1  7.98989 -12.0897 -44.632
LeftArm  -4.12665 14.9307 -31.1265
LeftForeArm  31.6826 -21.0834 -3.42019
LeftHand  -0.25398 0.0180481 5.50724
RightShoulder  5.13073 8.80033 35.7241
RightArm  4.63634 -11.2005 33.8789
RightForeArm  8.99143 15.7508 6.56377
RightHand  -1.2469 3.67069 -16.2033
LeftUpLeg  -11.9332 3.23829 3.95465
LeftLeg  56.8311 5.16041 8.97041
LeftFoot  -1.13662 -0.0663607 0.83576
LeftToes  1.06247e-005 4.65855e-005 -8.18501e-006
988
root  46.7188 39.4419 21.5038 177.276 45.5969 -177.836
RightUpLeg  -7.69105 -19.0949 -6.63766
RightLeg  18.9967 -2.7275 3.24101
RightFoot  -3.05107 -0.281842 3.5945
RightToes  0.00048216 0.542163 -0.142577
Spine  10.4549 0.21153 11.5482
Spine1  3.96999 2.5864 -4.45463
HEad  -13.6613 -23.3777 1.1578
LeftShoulder1  8.00757 -12.2001 -44.4066
LeftArm  -3.10289 17.0749 -31.0193
LeftForeArm  33.9038 -18.2607 -4.08029
LeftHand  -0.25398 0.0180481 5.50724
RightShoulder  5.00925 8.66974 35.1846
RightArm  8.08915 -9.67122 33.3043
RightForeArm  4.94508 17.897 6.0403
RightHand  -1.30363 3.77535 -16.7276
LeftUpLeg  -15.1015 5.8061 2.08406
LeftLeg  52.7805 4.6621 7.01745
LeftFoot  -2.33247 -0.0261145 0.517047
LeftToes  1.06247e-005 4.65855e-005 -8.18501e-006
989
root  47.765 39.6824 21.1978 177.537 44.3967 -178.001
RightUpLeg  -4.8821 -15.246 -6.86642
RightLeg  16.4837 -7.48645 3.58434
RightFoot  -3.58557 -0.273261 3.66412
RightToes  0.00048216 0.542163 -0.142577
Spine  10.227 0.845191 12.1734
Spine1  3.74199 3.35362 -5.54318
HEad  -13.9813 -25.4315 1.95422
LeftShoulder1  8.01886 -12.2102 -44.4422
LeftArm  -3.00738 19.4173 -30.4346
LeftForeArm  35.9904 -16.1015 -4.78762
LeftHand  -0.25398 0.0180481 5.50724
RightShoulder  4.92443 8.55598 34.8748
RightArm  11.091 -8.15892 32.2137
RightForeArm  1.39669 19.9583 5.50077
RightHand  -1.29741 3.698 -16.7831
LeftUpLeg  -17.0802 8.76261 0.163905
LeftLeg  46.3352 4.78924 5.76453
LeftFoot  -3.34994 0.0132951 0.0880234
LeftToes  1.06247e-005 4.65855e-005 -8.18501e-006
990
root  48.7683 39.8541 20.8658 177.665 43.1369 -177.991
RightUpLeg  -2.15135 -12.7862 -6.54389
RightLeg  14.3381 -10.9854 3.77049
RightFoot  -4.54122 -0.242938 3.57246
RightToes  0.00048216 0.542163 -0.142577
Spine  10.0593 1.37077 12.6151
Spine1  3.8146 3.97158 -6.39302
HEad  -14.5394 -27.3292 2.82091
LeftShoulder1  8.03409 -12.1693 -44.6522
LeftArm  -4.00967 21.8519 -29.618
LeftForeArm  37.4915 -14.3676 -5.21947
LeftHand  -0.25398 0.0180481 5.50724
RightShoulder  4.89608 8.49679 34.8403
RightArm  12.9864 -6.344 30.7466
RightForeArm  -0.767148 21.4054 5.2041
RightHand  -1.35557 3.92387 -17.1035
LeftUpLeg  -17.8618 12.8114 -1.7988
LeftLeg  37.8805 5.01428 4.53161
LeftFoot  -3.63507 0.104951 -1.21758
LeftToes  1.06247e-005 4.65855e-005 -8.18501e-006
991
root  49.7395 39.9299 20.5047 178.101 41.7438 -177.643
RightUpLeg  0.257182 -11.5861 -5.70992
RightLeg  12.6173 -13.5743 3.81288
RightFoot  -5.73438 -0.229282 3.8856
RightToes  0.00048216 0.542163 -0.142577
Spine  9.42557 1.81343 13.0337
Spine1  4.37068 4.46807 -7.08345
HEad  -14.6896 -28.8283 3.25785
LeftShoulder1  8.01025 -12.1253 -44.6442
LeftArm  -5.615 24.4169 -29.0228
LeftForeArm  37.9632 -13.1167 -5.28363
LeftHand  -0.25398 0.0180481 5.50724
RightShoulder  4.8901 8.46622 34.8935
RightArm  13.8193 -4.24931 29.335
RightForeArm  -1.7526 21.8484 5.17523
RightHand  -1.46452 4.28055 -17.7913
LeftUpLeg  -18.1656 18.7696 -4.21244
LeftLeg  28.1998 5.10295 3.46377
LeftFoot  -3.00706 0.127532 -1.51762
LeftToes  1.06247e-005 4.65855e-005 -8.18501e-006
992
root  50.6834 39.9305 20.1144 178.793 40.0458 -176.822
RightUpLeg  2.56783 -10.5883 -4.25726
RightLeg  11.0688 -16.2545 3.64069
RightFoot  -6.67242 -0.216293 4.17746
RightToes  0.00048216 0.542163 -0.142577
Spine  8.58205 2.0736 13.3866
Spine1  5.09416 4.72407 -7.35473
HEad  -15.2722 -30.5746 4.54123
LeftShoulder1  7.89651 -12.0141 -44.3101
LeftArm  -7.29715 27.0211 -28.8638
LeftForeArm  37.2027 -12.2319 -5.12232
LeftHand  -0.25398 0.0180481 5.50724
RightShoulder  4.86755 8.43272 34.8203
RightArm  13.6757 -2.09393 28.272
RightForeArm  -1.42601 21.1772 5.32279
RightHand  -1.49555 4.38977 -17.9611
LeftUpLeg  -17.8524 25.307 -6.45239
LeftLeg  18.1393 6.50354 2.00959
LeftFoot  -2.13545 0.0579237 -0.555841
LeftToes  1.06247e-005 4.65855e-005 -8.18501e-006
993
root  51.6232 39.8569 19.685 179.276 37.8969 -175.598
RightUpLeg  5.19128 -9.53098 -2.29216
RightLeg  9.81993 -19.3241 3.37421
RightFoot  -7.85324 -0.184359 4.29948
RightToes  0.00048216 0.542163 -0.142577
Spine  8.04992 2.08193 13.3874
Spine1  5.62097 4.58678 -6.79746
HEad  -16.3312 -32.4051 6.57311
LeftShoulder1  7.69999 -11.7941 -43.8031
LeftArm  -8.88141 29.5059 -29.0351
LeftForeArm  35.7797 -11.6483 -4.83664
LeftHand  -0.25398 0.0180481 5.50724
RightShoulder  4.83676 8.39382 34.6967
RightArm  11.9458 -0.0862126 27.5014
RightForeArm  0.826514 19.5429 5.73654
RightHand  -1.42701 4.38893 -17.1666
LeftUpLeg  -14.9993 21.7346 -4.46062
LeftLeg  7.54139 19.5041 -3.11555
LeftFoot  -1.1546 0.0383839 -0.34918
LeftToes  1.06247e-005 4.65855e-005 -8.18501e-006
